<?xml version="1.0" encoding="UTF-8"?>
<svg xmlns="http://www.w3.org/2000/svg" aria-hidden="true" style="display:none">
    <symbol id="icon-sun" viewBox="0 0 24 24" fill="currentColor">
        <circle cx="12" cy="12" r="4" />
        <g stroke="currentColor" stroke-width="1.2" stroke-linecap="round">
            <line x1="12" y1="1" x2="12" y2="4" />
            <line x1="12" y1="20" x2="12" y2="23" />
            <line x1="1" y1="12" x2="4" y2="12" />
            <line x1="20" y1="12" x2="23" y2="12" />
            <line x1="4.2" y1="4.2" x2="6.3" y2="6.3" />
            <line x1="17.7" y1="17.7" x2="19.8" y2="19.8" />
            <line x1="4.2" y1="19.8" x2="6.3" y2="17.7" />
            <line x1="17.7" y1="6.3" x2="19.8" y2="4.2" />
        </g>
    </symbol>
    <symbol id="icon-moon" viewBox="0 0 24 24" fill="currentColor">
        <path d="M21 12.79A9 9 0 1111.21 3 7 7 0 0021 12.79z" />
    </symbol>
    <symbol id="icon-eye" viewBox="0 0 24 24" fill="none" stroke="currentColor" stroke-width="1.6">
        <path d="M1 12s4-7 11-7 11 7 11 7-4 7-11 7S1 12 1 12z" />
        <circle cx="12" cy="12" r="3" fill="currentColor" />
    </symbol>
    <symbol id="icon-video" viewBox="0 0 24 24" fill="currentColor">
        <rect x="2" y="5" width="15" height="14" rx="2" />
        <polygon points="17,9 22,12 17,15" />
    </symbol>
    <symbol id="icon-camera" viewBox="0 0 24 24" fill="currentColor">
        <rect x="3" y="6" width="18" height="13" rx="2" />
        <circle cx="12" cy="12.5" r="3" />
        <rect x="7" y="3" width="4" height="3" rx="1" />
    </symbol>
    <symbol id="icon-laptop" viewBox="0 0 24 24" fill="currentColor">
        <rect x="3" y="4" width="18" height="11" rx="1" />
        <rect x="1" y="17" width="22" height="2" rx="1" />
    </symbol>
    <symbol id="icon-rocket" viewBox="0 0 24 24" fill="currentColor">
        <path d="M12 2c2 1 4 3 5 5s1 3 0 5-2 3-4 5-3 2-5 0-3-3-5-4 1-4 3-6S10 1 12 2z" />
    </symbol>
    <symbol id="icon-brain" viewBox="0 0 24 24" fill="currentColor">
        <path d="M12 3a4 4 0 014 4v1h1a3 3 0 013 3v3a3 3 0 01-3 3h-1v1a4 4 0 01-4 4 4 4 0 01-4-4v-1H7a3 3 0 01-3-3v-3a3 3 0 013-3h1V7a4 4 0 014-4z" />
    </symbol>
    <symbol id="icon-cloud" viewBox="0 0 24 24" fill="currentColor">
        <path d="M19.35 10.04a7 7 0 00-13.17-1.56A5 5 0 005 17h13a4 4 0 00.35-6.96z" />
    </symbol>
    <symbol id="icon-lock" viewBox="0 0 24 24" fill="currentColor">
        <rect x="4" y="10" width="16" height="10" rx="2" />
        <path d="M8 10V8a4 4 0 118 0v2" fill="none" stroke="currentColor" stroke-width="1.6"/>
    </symbol>
    <symbol id="icon-phone" viewBox="0 0 24 24" fill="currentColor">
        <path d="M22 16.92V21a1 1 0 01-1.11 1 19.86 19.86 0 01-8.63-3.07 19.5 19.5 0 01-6-6A19.86 19.86 0 013 3.11 1 1 0 014 2h4.09a1 1 0 01.94.66l1.2 3.6a1 1 0 01-.24 1l-1.5 1.5a12 12 0 005.6 5.6l1.5-1.5a1 1 0 011-.24l3.6 1.2a1 1 0 01.66.94z" />
    </symbol>
    <symbol id="icon-globe" viewBox="0 0 24 24" fill="none" stroke="currentColor" stroke-width="1.8" stroke-linecap="round">
        <circle cx="12" cy="12" r="9"/>
        <ellipse cx="12" cy="12" rx="3.5" ry="9"/>
        <line x1="3" y1="12" x2="21" y2="12"/>
    </symbol>
    <symbol id="icon-monitor" viewBox="0 0 24 24" fill="currentColor">
        <rect x="3" y="4" width="18" height="12" rx="1" />
        <rect x="9" y="17" width="6" height="2" rx="1" />
    </symbol>
    <symbol id="icon-smartphone" viewBox="0 0 24 24" fill="currentColor">
        <rect x="7" y="2" width="10" height="20" rx="2" />
        <circle cx="12" cy="18" r="0.8" />
    </symbol>
    <symbol id="icon-building" viewBox="0 0 24 24" fill="currentColor">
        <rect x="3" y="3" width="7" height="18" rx="1" />
        <rect x="14" y="6" width="7" height="15" rx="1" />
    </symbol>
    <symbol id="icon-robot" viewBox="0 0 24 24" fill="currentColor">
        <rect x="6" y="4" width="12" height="12" rx="2" />
        <circle cx="9" cy="10" r="1" />
        <circle cx="15" cy="10" r="1" />
        <rect x="9" y="14" width="6" height="2" rx="1" />
    </symbol>
    <symbol id="icon-shield" viewBox="0 0 24 24" fill="currentColor">
        <path d="M12 2l7 4v6c0 5-3.6 9.7-7 10-3.4-.3-7-5-7-10V6l7-4z" />
    </symbol>
    <symbol id="icon-user" viewBox="0 0 24 24" fill="currentColor">
        <circle cx="12" cy="8" r="3" />
        <path d="M4 20c1.5-4 6-6 8-6s6.5 2 8 6" />
    </symbol>
</svg>
